HIERARCHY
ROOT Hips
{
	OFFSET 0.000000 103.266502 0.000000
	CHANNELS 6 Xposition Yposition Zposition Xrotation Yrotation Zrotation 
	JOINT Spine
	{
		OFFSET -0.002400 12.777504 0.315300
		CHANNELS 3 Xrotation Yrotation Zrotation
		JOINT Spine1
		{
			OFFSET -0.002067 5.816869 0.032633
			CHANNELS 3 Xrotation Yrotation Zrotation
			JOINT Spine1_split
			{
				OFFSET -0.002067 5.816869 0.032633
				CHANNELS 3 Xrotation Yrotation Zrotation
				JOINT Spine2
				{
					OFFSET -0.002067 5.816869 0.032633
					CHANNELS 3 Xrotation Yrotation Zrotation
					JOINT Neck
					{
						OFFSET -0.003700 21.199493 -0.826900
						CHANNELS 3 Xrotation Yrotation Zrotation
						JOINT Head
						{
							OFFSET 0.000000 20.442200 4.834800
							CHANNELS 3 Xrotation Yrotation Zrotation
							JOINT HeadTop_End
							{
								OFFSET 0.000000 34.668396 4.968400
								CHANNELS 3 Xrotation Yrotation Zrotation
								End Site
								{
									OFFSET 0.000000 0.000000 0.000000
								}
							}
						}
					}
					JOINT LeftShoulder
					{
						OFFSET 3.288150 8.794197 -1.372250
						CHANNELS 3 Xrotation Yrotation Zrotation
						JOINT LeftShoulder_split
						{
							OFFSET 3.288150 8.794197 -1.372250
							CHANNELS 3 Xrotation Yrotation Zrotation
							JOINT LeftArm
							{
								OFFSET 11.953299 -2.279007 -0.146200
								CHANNELS 3 Xrotation Yrotation Zrotation
								JOINT LeftForeArm
								{
									OFFSET 18.448900 0.000000 0.000000
									CHANNELS 3 Xrotation Yrotation Zrotation
									JOINT LeftHand
									{
										OFFSET 29.527798 0.000000 0.000000
										CHANNELS 3 Xrotation Yrotation Zrotation
										JOINT LeftHandThumb1
										{
											OFFSET 10.739754 -2.369614 9.225399
											CHANNELS 3 Xrotation Yrotation Zrotation
											JOINT LeftHandThumb2
											{
												OFFSET 4.926170 -2.844131 2.844125
												CHANNELS 3 Xrotation Yrotation Zrotation
												JOINT LeftHandThumb3
												{
													OFFSET 4.614891 -2.664413 2.664409
													CHANNELS 3 Xrotation Yrotation Zrotation
													JOINT LeftHandThumb4
													{
														OFFSET 4.432465 -2.559082 2.559083
														CHANNELS 3 Xrotation Yrotation Zrotation
														End Site
														{
															OFFSET 0.000000 0.000000 0.000000
														}
													}
												}
											}
										}
										JOINT LeftHandIndex1
										{
											OFFSET 26.467674 0.187653 6.405298
											CHANNELS 3 Xrotation Yrotation Zrotation
											JOINT LeftHandIndex2
											{
												OFFSET 8.792900 0.000000 0.000000
												CHANNELS 3 Xrotation Yrotation Zrotation
												JOINT LeftHandIndex3
												{
													OFFSET 10.075203 0.000000 0.000000
													CHANNELS 3 Xrotation Yrotation Zrotation
													End Site
													{
														OFFSET 0.000000 0.000000 0.000000
													}
												}
											}
										}
										JOINT LeftHandMiddle1
										{
											OFFSET 25.764404 0.000000 0.000000
											CHANNELS 3 Xrotation Yrotation Zrotation
											JOINT LeftHandMiddle2
											{
												OFFSET 9.393974 0.000000 0.000000
												CHANNELS 3 Xrotation Yrotation Zrotation
												JOINT LeftHandMiddle3
												{
													OFFSET 10.771950 0.000000 0.000000
													CHANNELS 3 Xrotation Yrotation Zrotation
													End Site
													{
														OFFSET 0.000000 0.000000 0.000000
													}
												}
											}
										}
										JOINT LeftHandRing1
										{
											OFFSET 24.660927 0.144547 -6.225808
											CHANNELS 3 Xrotation Yrotation Zrotation
											JOINT LeftHandRing2
											{
												OFFSET 9.393799 0.000000 0.000000
												CHANNELS 3 Xrotation Yrotation Zrotation
												JOINT LeftHandRing3
												{
													OFFSET 9.928497 0.000000 0.000000
													CHANNELS 3 Xrotation Yrotation Zrotation
													End Site
													{
														OFFSET 0.000000 0.000000 0.000000
													}
												}
											}
										}
										JOINT LeftHandPinky1
										{
											OFFSET 23.655350 0.125290 -12.815412
											CHANNELS 3 Xrotation Yrotation Zrotation
											JOINT LeftHandPinky2
											{
												OFFSET 8.425102 0.000000 0.000000
												CHANNELS 3 Xrotation Yrotation Zrotation
												JOINT LeftHandPinky3
												{
													OFFSET 8.147003 0.000000 0.000000
													CHANNELS 3 Xrotation Yrotation Zrotation
													End Site
													{
														OFFSET 0.000000 0.000000 0.000000
													}
												}
											}
										}
									}
								}
							}
						}
					}
					JOINT RightShoulder
					{
						OFFSET -3.249400 8.794197 -1.372250
						CHANNELS 3 Xrotation Yrotation Zrotation
						JOINT RightShoulder_split
						{
							OFFSET -3.249400 8.794197 -1.372250
							CHANNELS 3 Xrotation Yrotation Zrotation
							JOINT RightArm
							{
								OFFSET -11.953299 -2.279007 -0.146200
								CHANNELS 3 Xrotation Yrotation Zrotation
								JOINT RightForeArm
								{
									OFFSET -18.448900 0.000000 0.000000
									CHANNELS 3 Xrotation Yrotation Zrotation
									JOINT RightHand
									{
										OFFSET -29.527802 0.000000 0.000000
										CHANNELS 3 Xrotation Yrotation Zrotation
										JOINT RightHandThumb1
										{
											OFFSET -10.739754 -2.369614 9.225399
											CHANNELS 3 Xrotation Yrotation Zrotation
											JOINT RightHandThumb2
											{
												OFFSET -4.926170 -2.844131 2.844125
												CHANNELS 3 Xrotation Yrotation Zrotation
												JOINT RightHandThumb3
												{
													OFFSET -4.614891 -2.664413 2.664409
													CHANNELS 3 Xrotation Yrotation Zrotation
													JOINT RightHandThumb4
													{
														OFFSET -4.432465 -2.559082 2.559083
														CHANNELS 3 Xrotation Yrotation Zrotation
														End Site
														{
															OFFSET 0.000000 0.000000 0.000000
														}
													}
												}
											}
										}
										JOINT RightHandIndex1
										{
											OFFSET -26.467674 0.187653 6.405298
											CHANNELS 3 Xrotation Yrotation Zrotation
											JOINT RightHandIndex2
											{
												OFFSET -8.792900 0.000000 0.000000
												CHANNELS 3 Xrotation Yrotation Zrotation
												JOINT RightHandIndex3
												{
													OFFSET -10.075203 0.000000 0.000000
													CHANNELS 3 Xrotation Yrotation Zrotation
													End Site
													{
														OFFSET 0.000000 0.000000 0.000000
													}
												}
											}
										}
										JOINT RightHandMiddle1
										{
											OFFSET -25.764404 0.000000 0.000000
											CHANNELS 3 Xrotation Yrotation Zrotation
											JOINT RightHandMiddle2
											{
												OFFSET -9.393974 0.000000 0.000000
												CHANNELS 3 Xrotation Yrotation Zrotation
												JOINT RightHandMiddle3
												{
													OFFSET -10.771950 0.000000 0.000000
													CHANNELS 3 Xrotation Yrotation Zrotation
													End Site
													{
														OFFSET 0.000000 0.000000 0.000000
													}
												}
											}
										}
										JOINT RightHandRing1
										{
											OFFSET -24.660927 0.144547 -6.225808
											CHANNELS 3 Xrotation Yrotation Zrotation
											JOINT RightHandRing2
											{
												OFFSET -9.393799 0.000000 0.000000
												CHANNELS 3 Xrotation Yrotation Zrotation
												JOINT RightHandRing3
												{
													OFFSET -9.928497 0.000000 0.000000
													CHANNELS 3 Xrotation Yrotation Zrotation
													End Site
													{
														OFFSET 0.000000 0.000000 0.000000
													}
												}
											}
										}
										JOINT RightHandPinky1
										{
											OFFSET -23.655350 0.125290 -12.815412
											CHANNELS 3 Xrotation Yrotation Zrotation
											JOINT RightHandPinky2
											{
												OFFSET -8.425102 0.000000 0.000000
												CHANNELS 3 Xrotation Yrotation Zrotation
												JOINT RightHandPinky3
												{
													OFFSET -8.147003 0.000000 0.000000
													CHANNELS 3 Xrotation Yrotation Zrotation
													End Site
													{
														OFFSET 0.000000 0.000000 0.000000
													}
												}
											}
										}
									}
								}
							}
						}
					}
				}
			}
		}
	}
	JOINT LeftUpLeg
	{
		OFFSET 11.394100 -6.187798 -0.413800
		CHANNELS 3 Xrotation Yrotation Zrotation
		JOINT LeftLeg
		{
			OFFSET 0.430247 -32.302673 3.732800
			CHANNELS 3 Xrotation Yrotation Zrotation
			JOINT LeftFoot
			{
				OFFSET -0.430247 -48.264931 -6.423300
				CHANNELS 3 Xrotation Yrotation Zrotation
				JOINT LeftToeBase
				{
					OFFSET 4.230900 -16.068199 23.438400
					CHANNELS 3 Xrotation Yrotation Zrotation
					JOINT LeftToe_End
					{
						OFFSET 4.510700 0.695400 19.974600
						CHANNELS 3 Xrotation Yrotation Zrotation
						End Site
						{
							OFFSET 0.000000 0.000000 0.000000
						}
					}
				}
			}
		}
	}
	JOINT RightUpLeg
	{
		OFFSET -11.333700 -6.187798 -0.413800
		CHANNELS 3 Xrotation Yrotation Zrotation
		JOINT RightLeg
		{
			OFFSET -0.430392 -32.302628 3.733000
			CHANNELS 3 Xrotation Yrotation Zrotation
			JOINT RightFoot
			{
				OFFSET 0.430392 -48.264973 -6.423500
				CHANNELS 3 Xrotation Yrotation Zrotation
				JOINT RightToeBase
				{
					OFFSET -4.230900 -16.068199 23.438400
					CHANNELS 3 Xrotation Yrotation Zrotation
					JOINT RightToe_End
					{
						OFFSET -4.510700 0.695400 19.974600
						CHANNELS 3 Xrotation Yrotation Zrotation
						End Site
						{
							OFFSET 0.000000 0.000000 0.000000
						}
					}
				}
			}
		}
	}
}
MOTION
Frames: 4
Frame Time: 0.016667
-1.164257 97.894577 0.209424 5.038951 -14.074091 10.374759 1.795509 4.687199 0.351879 5.177707 9.319219 2.133655 0.000000 0.000000 0.000000 5.034876 9.321733 2.400948 -1.845151 -1.005209 -1.922219 -8.332129 -2.916354 -12.042395 0.000000 0.000000 0.000001 0.683997 -0.873509 -14.226764 0.000000 0.000000 0.000000 -18.744834 -25.288444 -72.307716 -0.000002 -68.920714 -0.000007 -36.056606 9.257031 42.116172 -10.930926 -6.748099 10.337280 -18.089396 8.879766 2.392671 5.698788 5.288805 3.340169 -0.000000 -0.000000 0.000000 5.890363 8.200063 -88.621793 6.193147 5.841104 -93.357635 0.000002 -0.000003 0.000000 7.765551 7.904025 -107.399493 4.299865 5.642372 -74.600801 0.000001 0.000003 -0.000003 7.314748 8.035639 -105.794979 3.608016 5.405425 -67.422901 0.000001 -0.000002 0.000002 10.390449 6.780222 -113.877108 1.747954 4.174837 -45.422168 -0.000001 -0.000000 0.000001 -0.133324 13.109085 18.148146 0.000000 0.000000 0.000000 -38.704954 64.841411 69.860274 0.000011 37.971443 -0.000006 -24.338599 -7.627339 -15.970108 17.912451 17.120564 -32.483574 12.694386 -52.014226 20.210829 2.934327 3.697811 -26.040875 -0.000000 0.000001 -0.000001 0.276347 -8.899011 1.740149 5.888274 -4.491839 105.344200 0.000001 -0.000001 0.000000 4.166156 -8.600789 42.153202 7.050165 -3.996495 120.947146 0.000000 -0.000001 0.000001 -0.361101 -4.549274 57.044220 4.703200 -4.656933 90.567099 -0.000000 0.000000 0.000001 -5.324603 -0.292077 51.887308 3.524525 -4.517629 75.909254 0.000000 0.000000 0.000000 -28.282212 -8.664288 -12.275718 12.803496 -5.169121 -7.569686 11.402391 -27.774005 6.460721 0.000012 -0.675673 0.000002 -0.000000 0.000000 -0.000000 -2.437808 -14.469394 -13.390923 34.797693 2.977615 -5.537161 -14.047087 -1.560209 9.676495 -25.700595 -0.000014 -0.000006 -0.000000 0.000000 -0.000000 
-1.143379 97.875626 0.222932 5.091621 -14.144414 10.145159 1.856403 4.783906 0.425814 5.160751 9.282535 2.112637 0.000000 0.000000 0.000000 5.022809 9.284443 2.374300 -2.064541 -1.057511 -1.877891 -8.628699 -3.003491 -11.986657 0.000000 -0.000000 -0.000000 0.681855 -0.881332 -14.238708 0.000000 0.000000 0.000000 -18.870672 -25.494067 -72.321813 -0.000025 -68.978026 -0.000041 -35.909720 8.762847 42.291848 -10.930931 -6.748107 10.337276 -18.089392 8.879764 2.392676 5.669435 5.325180 3.432858 -0.000001 0.000001 0.000004 5.684048 8.194831 -88.397046 6.193768 5.841063 -93.363700 0.000002 -0.000001 0.000003 7.765555 7.904034 -107.399500 4.299861 5.642390 -74.600774 -0.000001 -0.000001 0.000003 7.314742 8.035634 -105.794979 3.608028 5.405419 -67.422894 -0.000000 0.000002 0.000001 10.390453 6.780237 -113.877128 1.747956 4.174843 -45.422165 -0.000001 -0.000001 0.000001 -0.124892 13.084222 18.116892 0.000000 0.000000 0.000000 -38.677988 64.587669 69.785067 -0.000003 38.471587 0.000007 -23.446977 -7.328088 -15.998963 17.912431 17.120566 -32.483567 12.694388 -52.014226 20.210832 2.934326 3.697807 -26.040880 0.000001 -0.000001 -0.000000 0.276362 -8.899012 1.740169 5.888273 -4.491840 105.344193 -0.000001 -0.000000 -0.000000 4.166161 -8.600805 42.153216 7.050165 -3.996495 120.947146 -0.000001 0.000001 -0.000003 -0.361090 -4.549274 57.044251 4.703200 -4.656934 90.567099 0.000000 -0.000000 0.000000 -5.324602 -0.292082 51.887315 3.524524 -4.517630 75.909254 -0.000000 -0.000000 0.000001 -28.479748 -8.455007 -11.999720 13.197428 -5.391038 -7.633572 11.293187 -27.770873 6.545439 -0.000007 -0.658325 0.000002 0.000000 0.000000 -0.000000 -1.917259 -14.594811 -13.123212 34.082395 3.193577 -5.375445 -14.326074 -1.533580 9.480221 -25.389012 -0.000006 -0.000003 -0.000000 -0.000001 0.000000 
-1.123327 97.859390 0.234080 5.148059 -14.212434 9.912093 1.915270 4.885679 0.510120 5.142802 9.248733 2.093727 0.000000 0.000000 0.000000 5.009901 9.249995 2.349699 -2.293331 -1.110688 -1.843280 -8.922891 -3.110392 -11.930528 0.000000 -0.000000 -0.000000 0.679170 -0.891286 -14.251476 0.000000 0.000000 0.000000 -19.028040 -25.737565 -72.345978 0.000043 -69.038685 0.000044 -35.733487 8.163540 42.501593 -10.930925 -6.748087 10.337266 -18.089394 8.879763 2.392679 5.634722 5.367965 3.542323 -0.000002 0.000002 -0.000002 5.440057 8.186713 -88.133407 6.194500 5.841013 -93.370872 0.000001 -0.000001 -0.000001 7.765548 7.904034 -107.399506 4.299868 5.642385 -74.600795 -0.000001 0.000000 -0.000001 7.314739 8.035639 -105.795006 3.608028 5.405419 -67.422901 -0.000001 0.000003 -0.000000 10.390441 6.780226 -113.877128 1.747955 4.174853 -45.422158 0.000002 0.000000 -0.000003 -0.114676 13.054866 18.076908 0.000000 0.000000 0.000000 -38.651812 64.286355 69.702845 -0.000010 39.069686 0.000011 -22.411439 -6.958794 -16.094359 17.912422 17.120562 -32.483543 12.694386 -52.014216 20.210829 2.934328 3.697802 -26.040880 -0.000000 -0.000001 0.000001 0.276349 -8.899020 1.740168 5.888276 -4.491838 105.344200 0.000001 0.000002 -0.000002 4.166161 -8.600799 42.153213 7.050165 -3.996495 120.947146 0.000001 0.000000 -0.000001 -0.361103 -4.549280 57.044227 4.703200 -4.656932 90.567099 -0.000001 0.000001 0.000001 -5.324599 -0.292069 51.887308 3.524526 -4.517629 75.909254 -0.000000 -0.000000 0.000001 -28.680456 -8.267026 -11.730422 13.580211 -5.596465 -7.677634 11.183730 -27.768593 6.616922 -0.000039 -0.610946 0.000001 0.000000 -0.000000 0.000000 -1.359378 -14.719741 -12.837073 33.309999 3.434174 -5.207221 -14.604208 -1.527442 9.269525 -25.065759 -0.000002 -0.000006 -0.000000 -0.000002 0.000000 
-1.103886 97.845383 0.243373 5.207302 -14.278863 9.676460 1.972266 4.991972 0.603485 5.123980 9.217471 2.076675 0.000000 0.000000 0.000000 4.996255 9.218045 2.326923 -2.529578 -1.164602 -1.816365 -9.215292 -3.233273 -11.874457 0.000000 -0.000000 0.000000 0.676443 -0.901444 -14.262934 0.000000 0.000000 0.000000 -19.187214 -25.974199 -72.374966 0.000033 -69.092664 0.000025 -35.558771 7.571573 42.707592 -10.930932 -6.748108 10.337264 -18.089394 8.879762 2.392673 5.600969 5.409396 3.648620 -0.000004 0.000001 0.000000 5.203250 8.176881 -87.878942 6.195215 5.840964 -93.377818 0.000001 -0.000000 -0.000000 7.765541 7.904016 -107.399500 4.299853 5.642371 -74.600801 -0.000000 0.000002 0.000001 7.314725 8.035620 -105.794979 3.608018 5.405415 -67.422894 0.000004 0.000001 -0.000001 10.390451 6.780228 -113.877128 1.747965 4.174847 -45.422165 -0.000003 0.000000 0.000001 -0.104595 13.026404 18.035932 0.000000 0.000000 0.000000 -38.631010 63.992855 69.627925 -0.000002 39.655385 0.000001 -21.415110 -6.603391 -16.217253 17.912431 17.120585 -32.483543 12.694388 -52.014233 20.210834 2.934326 3.697811 -26.040878 -0.000000 0.000002 -0.000001 0.276360 -8.899012 1.740160 5.888275 -4.491839 105.344200 0.000001 -0.000001 0.000001 4.166154 -8.600794 42.153223 7.050164 -3.996497 120.947146 0.000001 0.000000 0.000001 -0.361101 -4.549282 57.044227 4.703199 -4.656933 90.567093 0.000001 0.000000 -0.000000 -5.324598 -0.292068 51.887301 3.524523 -4.517629 75.909254 -0.000001 0.000000 0.000001 -28.879628 -8.099982 -11.454158 13.944732 -5.787238 -7.727005 11.082174 -27.766138 6.687550 0.000008 -0.535122 -0.000006 -0.000000 0.000002 0.000000 -0.775372 -14.833146 -12.549840 32.496548 3.691724 -5.011982 -14.872949 -1.536238 9.043758 -24.733474 -0.000006 -0.000002 -0.000000 -0.000001 0.000000 
